<?xml version="1.0" encoding="UTF-8"?>
<svg xmlns="http://www.w3.org/2000/svg" viewBox="0 0 165.37 147.15" fill="#2d6b5c">
    <path
        d="m149.26,122.22c-15.64,22.76-38.45,30.35-62.66,20.85-1.45-.57-2.12-.72-4.49-.72-1.5,0-3.72.46-4.75.83-6.71,2.63-13.37,3.97-19.77,3.97-4.86,0-9.55-.75-14.07-2.22-1.54-.5-2.12-2.37-1.16-3.67,1.39-1.96,2.84-3.92,4.28-5.88.57-.72,1.08-1.5,1.6-2.22h.05c2.01-2.74,3.97-5.47,5.94-8.21,3.1-4.28,6.66-8.83,11.92-10.37,5.78-1.65,11.66.72,17.45.98,5.32.21,10.43-1.55,14.92-4.34,3.66-2.27,7.17-5.37,11.05-9.7,1.91-2.13,3.71-4.32,5.4-6.58.95-1.27,2.86-1.22,3.78.07l13.8,17.9.14.17,2.65,2.99c.48.54,1.34.52,1.79-.04.67-.85,1.27-1.68,1.81-2.48,12.72-18.45,18.41-45.39,10.15-66.78-3.35-8.66-9.03-12.71-17.13-16.38-1.04-.47-1.45-1.74-.85-2.71,1.5-2.42,4.4-5.22,6.15-7.56.74-.99,2.22-1.37,3.32-.82,4.88,2.43,8.71,5.75,11.32,8.63,20.96,22.92,15.43,68.08-2.63,94.3Z" />
    <path
        d="m110.47,86c-2.24,3.33-4.73,6.53-7.45,9.58-4.24,4.7-9.39,9.65-15.85,10.89-3.67.67-7.38-.3-11-.88-2.94-.41-5.88-.52-8.88-.26-2.05.17-4.11.7-6.14,1.58-4.41,1.91-8.61,5.41-11.82,10.05-.83,1.18-2.53,3.41-4.59,6.18-1.67,2.23-3.26,4.35-4.71,6.3-.92,1.29-1.85,2.48-2.68,3.67-1.26,1.7-2.41,3.3-3.47,4.8-.36.5-.89.82-1.45.95-6.02-4.08-11.5-9.64-16.32-16.65C-1.96,96-7.48,50.84,13.48,27.91c2.59-2.86,6.73-6.49,11.59-8.93,1.12-.56,2.62-.18,3.36.82,1.76,2.33,4.64,5.12,6.14,7.53.17.26.26.56.26.85.08.77-.36,1.54-1.12,1.89-6.53,3.01-11.76,5.78-15.29,12.44-3.13,5.91-4.84,13.01-5.44,19.65-.14,1.51-.23,3.03-.27,4.55-.04,1.55-.04,3.11,0,4.66s.14,3.16.28,4.74c.14,1.6.32,3.2.55,4.78s.51,3.21.82,4.8.69,3.19,1.09,4.77.86,3.16,1.36,4.72,1.04,3.1,1.63,4.63c.59,1.52,1.22,3.02,1.9,4.51s1.39,2.92,2.16,4.35,1.25,2.29,2.11,3.65c.38.6.88,1.49,1.3,2.07s.93,1.19,1.44,1.62c.19.16.4.3.65.33.22.02.44-.07.64-.18.49-.26,1.33-1.16,1.65-1.62s.67-.85,1.03-1.27l9.35-12.84c6.38-8.76,12.76-17.5,19.14-26.26,3.3-4.53,6.45-9.21,9.89-13.65,3.11-4.02,7.68-7.62,12.98-7.62,4.29,0,7.88,2.41,10.35,5.88l17.39,24.53c.58.8.59,1.88.05,2.7Z" />
    <path
        d="m128.65,8.6c6.57.14-3.21,13.18-4.39,14.86l-.05.07c-4.27,6-9.88,11.01-16.23,14.73-20.72,13.17-44.93,2.19-62.42-12.37-5.35-3.74-16.82-19.99-14.06-24.18C32.45.27,34.96,0,36.27,0c10.35-.03,20.58,2.74,28.52,9.59,7.34,6.33,12.17,15.21,15.54,24.17.41,1.08.81,2.15,1.22,3.23.39,1.04.94,1.44,1.66,1.38.77-.06,1.23-1.78,1.41-2.43.53-1.89,1.37-3.68,2.16-5.48,2.59-5.92,6.31-10.94,11.74-14.53,4.98-3.29,10.74-5.26,16.58-6.32,4.46-.81,9.02-1.11,13.55-1.01Z" />
</svg>